<svg width="22" height="21" viewBox="0 0 22 21" fill="none" xmlns="http://www.w3.org/2000/svg">
<path d="M3.49325 0.766846C2.62934 0.766846 1.80081 1.11003 1.18993 1.72091C0.579057 2.33179 0.23587 3.16031 0.23587 4.02422V13.1449C0.23587 14.0088 0.579057 14.8373 1.18993 15.4482C1.80081 16.0591 2.62934 16.4023 3.49325 16.4023H4.57904V19.2653C4.57904 20.5048 5.98275 21.2232 6.98863 20.4979L12.6652 16.4023H17.8257C18.6896 16.4023 19.5182 16.0591 20.129 15.4482C20.7399 14.8373 21.0831 14.0088 21.0831 13.1449V4.02422C21.0831 3.16031 20.7399 2.33179 20.129 1.72091C19.5182 1.11003 18.6896 0.766846 17.8257 0.766846H3.49325Z" fill="#4799EB"/>
</svg>
