<svg width="22" height="22" viewBox="0 0 22 22" fill="none" xmlns="http://www.w3.org/2000/svg">
<path d="M1.44358 0.761557C1.31635 0.697921 1.17381 0.671271 1.03218 0.684637C0.890549 0.698004 0.755513 0.75085 0.642432 0.837166C0.52935 0.923482 0.442763 1.0398 0.39252 1.17289C0.342276 1.30598 0.330394 1.45051 0.358223 1.59002L2.49094 8.96255C2.53071 9.09994 2.60843 9.22333 2.71519 9.31852C2.82194 9.41371 2.95339 9.47684 3.09442 9.50067L11.7438 10.9493C12.1512 11.0299 12.1512 11.6136 11.7438 11.6942L3.09442 13.1429C2.95339 13.1667 2.82194 13.2298 2.71519 13.325C2.60843 13.4202 2.53071 13.5436 2.49094 13.681L0.358223 21.0535C0.330394 21.193 0.342276 21.3375 0.39252 21.4706C0.442763 21.6037 0.52935 21.72 0.642432 21.8064C0.755513 21.8927 0.890549 21.9455 1.03218 21.9589C1.17381 21.9723 1.31635 21.9456 1.44358 21.882L21.205 12.0013C21.3311 11.9381 21.4371 11.841 21.5112 11.721C21.5853 11.601 21.6245 11.4628 21.6245 11.3218C21.6245 11.1807 21.5853 11.0425 21.5112 10.9225C21.4371 10.8025 21.3311 10.7055 21.205 10.6423L1.44358 0.761557V0.761557Z" fill="#54CE3B"/>
</svg>
