<svg width="19" height="19" viewBox="0 0 19 19" fill="none" xmlns="http://www.w3.org/2000/svg">
<path d="M1.72119 18.3638C1.72119 18.3638 0.20108 18.3638 0.20108 16.8436C0.20108 15.3235 1.72119 10.7632 9.32174 10.7632C16.9223 10.7632 18.4424 15.3235 18.4424 16.8436C18.4424 18.3638 16.9223 18.3638 16.9223 18.3638H1.72119ZM9.32174 9.2431C10.5312 9.2431 11.6912 8.76264 12.5464 7.90741C13.4016 7.05218 13.8821 5.89224 13.8821 4.68277C13.8821 3.47329 13.4016 2.31335 12.5464 1.45813C11.6912 0.602899 10.5312 0.122437 9.32174 0.122437C8.11227 0.122437 6.95233 0.602899 6.0971 1.45813C5.24187 2.31335 4.76141 3.47329 4.76141 4.68277C4.76141 5.89224 5.24187 7.05218 6.0971 7.90741C6.95233 8.76264 8.11227 9.2431 9.32174 9.2431Z" fill="#E0804D"/>
</svg>
